<svg xmlns="http://www.w3.org/2000/svg" viewBox="0 0 64 64" fill="none">
  <!-- Brain outline - left hemisphere -->
  <path d="M30 8C24 8 20 11 18.5 14C16 14.5 12 17 12 22C10 23.5 8 26.5 8 30C8 34 10 37 12 38.5C12 41 13.5 44 16.5 45.5C18 48.5 21 50.5 25 51C27 52.5 29 53 30 53V8Z" fill="white" stroke="#C4704B" stroke-width="3" stroke-linejoin="round"/>
  <!-- Brain outline - right hemisphere -->
  <path d="M34 8C40 8 44 11 45.5 14C48 14.5 52 17 52 22C54 23.5 56 26.5 56 30C56 34 54 37 52 38.5C52 41 50.5 44 47.5 45.5C46 48.5 43 50.5 39 51C37 52.5 35 53 34 53V8Z" fill="white" stroke="#C4704B" stroke-width="3" stroke-linejoin="round"/>
  <!-- Center line -->
  <line x1="32" y1="10" x2="32" y2="53" stroke="#C4704B" stroke-width="2.5"/>
  <!-- Left branches with leaves -->
  <path d="M32 18C28 18 24 20 22 23" stroke="#C4704B" stroke-width="2" stroke-linecap="round" fill="none"/>
  <path d="M25 19C23.5 17.5 22 17.5 21 18.5C20 19.5 20.5 21 22 22" stroke="#C4704B" stroke-width="1.8" stroke-linecap="round" fill="none"/>
  <path d="M32 28C27 28 22 30 18 33" stroke="#C4704B" stroke-width="2" stroke-linecap="round" fill="none"/>
  <path d="M23 29C21.5 27.5 19.5 27.5 18.5 28.5C17.5 29.5 18 31 19.5 32" stroke="#C4704B" stroke-width="1.8" stroke-linecap="round" fill="none"/>
  <path d="M32 39C28 39 24 41 21 44" stroke="#C4704B" stroke-width="2" stroke-linecap="round" fill="none"/>
  <path d="M25 40C23.5 38.5 21.5 38.5 20.5 39.5C19.5 40.5 20 42 21.5 43" stroke="#C4704B" stroke-width="1.8" stroke-linecap="round" fill="none"/>
  <!-- Right branches with leaves -->
  <path d="M32 18C36 18 40 20 42 23" stroke="#C4704B" stroke-width="2" stroke-linecap="round" fill="none"/>
  <path d="M39 19C40.5 17.5 42 17.5 43 18.5C44 19.5 43.5 21 42 22" stroke="#C4704B" stroke-width="1.8" stroke-linecap="round" fill="none"/>
  <path d="M32 28C37 28 42 30 46 33" stroke="#C4704B" stroke-width="2" stroke-linecap="round" fill="none"/>
  <path d="M41 29C42.5 27.5 44.5 27.5 45.5 28.5C46.5 29.5 46 31 44.5 32" stroke="#C4704B" stroke-width="1.8" stroke-linecap="round" fill="none"/>
  <path d="M32 39C36 39 40 41 43 44" stroke="#C4704B" stroke-width="2" stroke-linecap="round" fill="none"/>
  <path d="M39 40C40.5 38.5 42.5 38.5 43.5 39.5C44.5 40.5 44 42 42.5 43" stroke="#C4704B" stroke-width="1.8" stroke-linecap="round" fill="none"/>
  <!-- Brain stem -->
  <path d="M29 53C29 56 30 58 32 58C34 58 35 56 35 53" stroke="#C4704B" stroke-width="2.5" stroke-linecap="round" fill="none"/>
</svg>
